<svg width="24" height="24" viewBox="0 0 24 24" fill="none" xmlns="http://www.w3.org/2000/svg">
<circle cx="12" cy="12" r="10" stroke="#5C5C5C" stroke-width="4"/>
<mask id="path-2-inside-1_4038_677" fill="white">
<path d="M24 12C24 18.6274 18.6274 24 12 24C5.37258 24 0 18.6274 0 12C0 5.37258 5.37258 0 12 0C18.6274 0 24 5.37258 24 12ZM3.91742 12C3.91742 16.4639 7.53611 20.0826 12 20.0826C16.4639 20.0826 20.0826 16.4639 20.0826 12C20.0826 7.53611 16.4639 3.91742 12 3.91742C7.53611 3.91742 3.91742 7.53611 3.91742 12Z"/>
</mask>
<path d="M24 12C24 18.6274 18.6274 24 12 24C5.37258 24 0 18.6274 0 12C0 5.37258 5.37258 0 12 0C18.6274 0 24 5.37258 24 12ZM3.91742 12C3.91742 16.4639 7.53611 20.0826 12 20.0826C16.4639 20.0826 20.0826 16.4639 20.0826 12C20.0826 7.53611 16.4639 3.91742 12 3.91742C7.53611 3.91742 3.91742 7.53611 3.91742 12Z" stroke="#8E53DA" stroke-width="8" mask="url(#path-2-inside-1_4038_677)"/>
</svg>
