<svg width="24" height="24" viewBox="0 0 24 24" fill="none" xmlns="http://www.w3.org/2000/svg">
<circle cx="12" cy="12" r="10" stroke="#5C5C5C" stroke-width="4"/>
<mask id="path-2-inside-1_4038_687" fill="white">
<path d="M12 24C13.5759 24 15.1363 23.6896 16.5922 23.0866C18.0481 22.4835 19.371 21.5996 20.4853 20.4853C21.5996 19.371 22.4835 18.0481 23.0866 16.5922C23.6896 15.1363 24 13.5759 24 12C24 10.4241 23.6896 8.86371 23.0866 7.4078C22.4835 5.95189 21.5996 4.62902 20.4853 3.51472C19.371 2.40042 18.0481 1.5165 16.5922 0.913445C15.1363 0.310389 13.5759 -6.88831e-08 12 0L12 3.91742C13.0614 3.91742 14.1124 4.12648 15.0931 4.53267C16.0737 4.93886 16.9647 5.53421 17.7152 6.28475C18.4658 7.03529 19.0611 7.92631 19.4673 8.90693C19.8735 9.88755 20.0826 10.9386 20.0826 12C20.0826 13.0614 19.8735 14.1124 19.4673 15.0931C19.0611 16.0737 18.4658 16.9647 17.7152 17.7152C16.9647 18.4658 16.0737 19.0611 15.0931 19.4673C14.1124 19.8735 13.0614 20.0826 12 20.0826L12 24Z"/>
</mask>
<path d="M12 24C13.5759 24 15.1363 23.6896 16.5922 23.0866C18.0481 22.4835 19.371 21.5996 20.4853 20.4853C21.5996 19.371 22.4835 18.0481 23.0866 16.5922C23.6896 15.1363 24 13.5759 24 12C24 10.4241 23.6896 8.86371 23.0866 7.4078C22.4835 5.95189 21.5996 4.62902 20.4853 3.51472C19.371 2.40042 18.0481 1.5165 16.5922 0.913445C15.1363 0.310389 13.5759 -6.88831e-08 12 0L12 3.91742C13.0614 3.91742 14.1124 4.12648 15.0931 4.53267C16.0737 4.93886 16.9647 5.53421 17.7152 6.28475C18.4658 7.03529 19.0611 7.92631 19.4673 8.90693C19.8735 9.88755 20.0826 10.9386 20.0826 12C20.0826 13.0614 19.8735 14.1124 19.4673 15.0931C19.0611 16.0737 18.4658 16.9647 17.7152 17.7152C16.9647 18.4658 16.0737 19.0611 15.0931 19.4673C14.1124 19.8735 13.0614 20.0826 12 20.0826L12 24Z" stroke="#FF9200" stroke-width="8" mask="url(#path-2-inside-1_4038_687)"/>
</svg>
