<svg width="24" height="24" viewBox="0 0 24 24" fill="none" xmlns="http://www.w3.org/2000/svg">
<circle cx="12" cy="12" r="10" stroke="#5C5C5C" stroke-width="4"/>
<mask id="path-2-inside-1_4038_682" fill="white">
<path d="M0 12C-2.07487e-07 14.3734 0.703787 16.6935 2.02236 18.6668C3.34094 20.6402 5.21508 22.1783 7.4078 23.0866C9.60051 23.9948 12.0133 24.2324 14.3411 23.7694C16.6689 23.3064 18.8071 22.1635 20.4853 20.4853C22.1635 18.8071 23.3064 16.6689 23.7694 14.3411C24.2324 12.0133 23.9948 9.60051 23.0866 7.4078C22.1783 5.21509 20.6402 3.34094 18.6668 2.02237C16.6935 0.703788 14.3734 1.79185e-07 12 0V3.91742C13.5986 3.91742 15.1613 4.39145 16.4904 5.27958C17.8196 6.16771 18.8556 7.43003 19.4673 8.90693C20.0791 10.3838 20.2391 12.009 19.9273 13.5768C19.6154 15.1447 18.8456 16.5849 17.7152 17.7152C16.5849 18.8456 15.1447 19.6154 13.5768 19.9273C12.009 20.2391 10.3838 20.0791 8.90693 19.4673C7.43003 18.8556 6.1677 17.8196 5.27958 16.4904C4.39145 15.1613 3.91742 13.5986 3.91742 12H0Z"/>
</mask>
<path d="M0 12C-2.07487e-07 14.3734 0.703787 16.6935 2.02236 18.6668C3.34094 20.6402 5.21508 22.1783 7.4078 23.0866C9.60051 23.9948 12.0133 24.2324 14.3411 23.7694C16.6689 23.3064 18.8071 22.1635 20.4853 20.4853C22.1635 18.8071 23.3064 16.6689 23.7694 14.3411C24.2324 12.0133 23.9948 9.60051 23.0866 7.4078C22.1783 5.21509 20.6402 3.34094 18.6668 2.02237C16.6935 0.703788 14.3734 1.79185e-07 12 0V3.91742C13.5986 3.91742 15.1613 4.39145 16.4904 5.27958C17.8196 6.16771 18.8556 7.43003 19.4673 8.90693C20.0791 10.3838 20.2391 12.009 19.9273 13.5768C19.6154 15.1447 18.8456 16.5849 17.7152 17.7152C16.5849 18.8456 15.1447 19.6154 13.5768 19.9273C12.009 20.2391 10.3838 20.0791 8.90693 19.4673C7.43003 18.8556 6.1677 17.8196 5.27958 16.4904C4.39145 15.1613 3.91742 13.5986 3.91742 12H0Z" stroke="#52CD5E" stroke-width="8" mask="url(#path-2-inside-1_4038_682)"/>
</svg>
