<svg width="24" height="24" viewBox="0 0 24 24" fill="none" xmlns="http://www.w3.org/2000/svg">
<circle cx="12" cy="12" r="10" stroke="#5C5C5C" stroke-width="4"/>
<mask id="path-2-inside-1_4038_692" fill="white">
<path d="M24 12C24 10.4241 23.6896 8.86371 23.0866 7.4078C22.4835 5.95189 21.5996 4.62902 20.4853 3.51472C19.371 2.40042 18.0481 1.5165 16.5922 0.913445C15.1363 0.310389 13.5759 -6.88831e-08 12 0L12 3.91742C13.0614 3.91742 14.1124 4.12648 15.0931 4.53267C16.0737 4.93886 16.9647 5.53421 17.7152 6.28475C18.4658 7.03529 19.0611 7.92631 19.4673 8.90693C19.8735 9.88755 20.0826 10.9386 20.0826 12H24Z"/>
</mask>
<path d="M24 12C24 10.4241 23.6896 8.86371 23.0866 7.4078C22.4835 5.95189 21.5996 4.62902 20.4853 3.51472C19.371 2.40042 18.0481 1.5165 16.5922 0.913445C15.1363 0.310389 13.5759 -6.88831e-08 12 0L12 3.91742C13.0614 3.91742 14.1124 4.12648 15.0931 4.53267C16.0737 4.93886 16.9647 5.53421 17.7152 6.28475C18.4658 7.03529 19.0611 7.92631 19.4673 8.90693C19.8735 9.88755 20.0826 10.9386 20.0826 12H24Z" stroke="#FF6363" stroke-width="8" mask="url(#path-2-inside-1_4038_692)"/>
</svg>
