<svg width="83" height="26" viewBox="0 0 83 26" fill="none" xmlns="http://www.w3.org/2000/svg">
<path d="M3.22266 22V11.375H0.0976562V8.19141H10.791V11.375H7.59766V22H3.22266ZM12.5684 8.19141H22.2559V10.75H16.9434V13.6699H21.6309V16.1699H16.9434V19.1875H22.2559V22H12.5684V8.19141ZM35.3027 11.7754C35.0358 11.6582 34.7233 11.541 34.3652 11.4238C34.0137 11.3001 33.6426 11.1895 33.252 11.0918C32.8678 10.9941 32.4772 10.916 32.0801 10.8574C31.6829 10.7923 31.3086 10.7598 30.957 10.7598C30.3451 10.7598 29.8665 10.8379 29.5215 10.9941C29.1764 11.1504 29.0039 11.4141 29.0039 11.7852C29.0039 11.9609 29.0625 12.1172 29.1797 12.2539C29.3034 12.3841 29.4759 12.5078 29.6973 12.625C29.9186 12.7357 30.1823 12.8464 30.4883 12.957C30.8008 13.0612 31.1458 13.1719 31.5234 13.2891L32.2363 13.5137C32.8353 13.696 33.3724 13.9173 33.8477 14.1777C34.3229 14.4316 34.7233 14.7344 35.0488 15.0859C35.3809 15.431 35.6348 15.8281 35.8105 16.2773C35.9863 16.7266 36.0742 17.2376 36.0742 17.8105C36.0742 18.4811 35.9668 19.0931 35.752 19.6465C35.5436 20.1934 35.2148 20.6621 34.7656 21.0527C34.3164 21.4434 33.7402 21.7461 33.0371 21.9609C32.3405 22.1758 31.5007 22.2832 30.5176 22.2832C29.6452 22.2832 28.776 22.2116 27.9102 22.0684C27.0508 21.9251 26.1816 21.6745 25.3027 21.3164V18.0938C26.1426 18.5234 26.9564 18.8392 27.7441 19.041C28.5384 19.2363 29.3197 19.334 30.0879 19.334C30.7194 19.334 31.1784 19.2331 31.4648 19.0312C31.7578 18.8294 31.9043 18.5495 31.9043 18.1914C31.9043 17.9766 31.849 17.7943 31.7383 17.6445C31.6341 17.4883 31.4616 17.3451 31.2207 17.2148C30.9863 17.0846 30.6771 16.9544 30.293 16.8242C29.9089 16.6875 29.4434 16.5345 28.8965 16.3652C28.3496 16.2025 27.8418 15.9974 27.373 15.75C26.9108 15.5026 26.5104 15.2064 26.1719 14.8613C25.8333 14.5098 25.5664 14.1029 25.3711 13.6406C25.1823 13.1784 25.0879 12.651 25.0879 12.0586C25.0879 11.4466 25.1953 10.8867 25.4102 10.3789C25.625 9.87109 25.9538 9.43815 26.3965 9.08008C26.8392 8.71549 27.3991 8.43229 28.0762 8.23047C28.7598 8.02865 29.5703 7.92773 30.5078 7.92773C30.8789 7.92773 31.2728 7.94401 31.6895 7.97656C32.1061 8.00911 32.5293 8.05794 32.959 8.12305C33.3952 8.18815 33.8249 8.27279 34.248 8.37695C34.6712 8.48112 35.0716 8.60482 35.4492 8.74805L35.3027 11.7754ZM40.625 22V11.375H37.5V8.19141H48.1934V11.375H45V22H40.625Z" fill="white"/>
<path d="M53.4434 22.2832C53.0072 22.2832 52.6426 22.2214 52.3496 22.0977C52.0632 21.974 51.819 21.8112 51.6172 21.6094C51.4154 21.401 51.2591 21.1667 51.1484 20.9062C51.0443 20.6393 50.9922 20.3691 50.9922 20.0957C50.9922 19.8353 51.0475 19.5749 51.1582 19.3145C51.2689 19.054 51.4284 18.8197 51.6367 18.6113C51.8451 18.403 52.0924 18.2337 52.3789 18.1035C52.6719 17.9733 53.0299 17.9082 53.4531 17.9082C53.8893 17.9082 54.2604 17.9733 54.5664 18.1035C54.8724 18.2337 55.1328 18.403 55.3477 18.6113C55.569 18.8197 55.7383 19.054 55.8555 19.3145C55.9727 19.5684 56.0312 19.8255 56.0312 20.0859C56.0312 20.3659 55.9727 20.6393 55.8555 20.9062C55.7448 21.1667 55.582 21.401 55.3672 21.6094C55.1589 21.8112 54.8984 21.974 54.5859 22.0977C54.2799 22.2214 53.8991 22.2832 53.4434 22.2832ZM61.2461 22V11.375H58.1211V8.19141H68.8145V11.375H65.6211V22H61.2461ZM69.0195 8.19141H74.332L76.3438 18.4941L78.707 8.19141H82.1445L78.4043 22H72.457L69.0195 8.19141Z" fill="#FF9200"/>
</svg>
